<svg xmlns="http://www.w3.org/2000/svg" width="22.574" height="22.573" viewBox="0 0 22.574 22.573">
  <path id="Icon_awesome-linkedin-in" data-name="Icon awesome-linkedin-in" d="M5.053,22.574H.373V7.5h4.68ZM2.71,5.447a2.723,2.723,0,1,1,2.71-2.736A2.733,2.733,0,0,1,2.71,5.447ZM22.569,22.574H17.9V15.238c0-1.748-.035-3.991-2.433-3.991-2.433,0-2.806,1.9-2.806,3.865v7.462H7.985V7.5h4.489V9.559h.066a4.918,4.918,0,0,1,4.428-2.434c4.736,0,5.607,3.119,5.607,7.17v8.279Z" transform="translate(0 -0.001)" fill="#fff"/>
</svg>
