<svg xmlns="http://www.w3.org/2000/svg" id="Layer_1" data-name="Layer 1" width="76" height="43" viewBox="0 0 76 68">
  <g id="Group_382" data-name="Group 382" transform="translate(62.054)">
    <g id="Group_381" data-name="Group 381">
      <path id="Path_474" data-name="Path 474" d="M304.714,50.62l-3.094,3.455.145.143,3.455-3.091Z" transform="translate(-299.234 -39.805)" fill="#fdbc11"/>
      <path id="Path_475" data-name="Path 475" d="M341.568,14.778l3.091-3.453-.145-.145-3.455,3.091Z" transform="translate(-330.247 -8.791)" fill="#fdbc11"/>
      <path id="Path_476" data-name="Path 476" d="M295.078,37.64l-4.628.256V38.1l4.628.256Z" transform="translate(-290.45 -29.598)" fill="#fdbc11"/>
      <path id="Path_477" data-name="Path 477" d="M347.42,37.64v.718l4.63-.256V37.9Z" transform="translate(-335.248 -29.598)" fill="#fdbc11"/>
      <path id="Path_478" data-name="Path 478" d="M305.22,14.271l-3.455-3.091-.145.145,3.094,3.453Z" transform="translate(-299.234 -8.791)" fill="#fdbc11"/>
      <path id="Path_479" data-name="Path 479" d="M341.06,51.126l3.455,3.091.145-.143-3.091-3.455Z" transform="translate(-330.247 -39.805)" fill="#fdbc11"/>
      <path id="Path_480" data-name="Path 480" d="M328.346,0l-.256,4.63h.716L328.551,0Z" transform="translate(-320.048)" fill="#fdbc11"/>
      <path id="Path_481" data-name="Path 481" d="M328.346,61.608h.205l.254-4.628h-.716Z" transform="translate(-320.048 -44.806)" fill="#fdbc11"/>
      <path id="Path_482" data-name="Path 482" d="M315.814,54.99l-1.534,4.376.188.077,2.008-4.179Z" transform="translate(-309.189 -43.241)" fill="#fdbc11"/>
      <path id="Path_483" data-name="Path 483" d="M335.632,7.262l1.536-4.373-.19-.079L334.97,6.989Z" transform="translate(-325.458 -2.21)" fill="#fdbc11"/>
      <path id="Path_484" data-name="Path 484" d="M297.437,44.53l-4.177,2.006.077.19,4.376-1.534Z" transform="translate(-292.66 -35.016)" fill="#fdbc11"/>
      <path id="Path_485" data-name="Path 485" d="M345.714,26.026l4.179-2.006-.079-.19-4.373,1.536Z" transform="translate(-333.691 -18.739)" fill="#fdbc11"/>
      <path id="Path_486" data-name="Path 486" d="M297.712,25.366l-4.376-1.536-.077.19,4.177,2.006Z" transform="translate(-292.66 -18.739)" fill="#fdbc11"/>
      <path id="Path_487" data-name="Path 487" d="M345.44,45.192l4.373,1.534.079-.19-4.179-2.006Z" transform="translate(-333.691 -35.016)" fill="#fdbc11"/>
      <path id="Path_488" data-name="Path 488" d="M316.476,6.989,314.468,2.81l-.188.079,1.534,4.373Z" transform="translate(-309.189 -2.21)" fill="#fdbc11"/>
      <path id="Path_489" data-name="Path 489" d="M334.97,55.263l2.008,4.179.19-.077-1.536-4.376Z" transform="translate(-325.458 -43.241)" fill="#fdbc11"/>
      <path id="Path_490" data-name="Path 490" d="M322.91,59.154l.2.038.861-3.228-.622-.124Z" transform="translate(-315.975 -43.91)" fill="#fdbc11"/>
      <path id="Path_491" data-name="Path 491" d="M332.714,7.151l-.2-.041-.861,3.228.624.124Z" transform="translate(-322.848 -5.591)" fill="#fdbc11"/>
      <path id="Path_492" data-name="Path 492" d="M302.27,49.642l.113.169,2.895-1.673-.355-.528Z" transform="translate(-299.745 -37.438)" fill="#fdbc11"/>
      <path id="Path_493" data-name="Path 493" d="M346.083,20.73l-2.893,1.675.353.528L346.2,20.9Z" transform="translate(-331.922 -16.301)" fill="#fdbc11"/>
      <path id="Path_494" data-name="Path 494" d="M297.591,32.46l-.041.2,3.23.863.124-.624Z" transform="translate(-296.033 -25.525)" fill="#fdbc11"/>
      <path id="Path_495" data-name="Path 495" d="M349.594,42.272l.041-.2-3.23-.861-.124.622Z" transform="translate(-334.352 -32.406)" fill="#fdbc11"/>
      <path id="Path_496" data-name="Path 496" d="M313.373,14.484l-2.032-2.654-.171.113,1.675,2.893Z" transform="translate(-306.743 -9.303)" fill="#fdbc11"/>
      <path id="Path_497" data-name="Path 497" d="M338.05,53.093l2.032,2.656.171-.115-1.675-2.893Z" transform="translate(-327.88 -41.472)" fill="#fdbc11"/>
      <path id="Path_498" data-name="Path 498" d="M331.65,55.964l.861,3.228.2-.038-.44-3.314Z" transform="translate(-322.848 -43.91)" fill="#fdbc11"/>
      <path id="Path_499" data-name="Path 499" d="M322.91,7.151l.44,3.312.622-.124-.861-3.228Z" transform="translate(-315.975 -5.591)" fill="#fdbc11"/>
      <path id="Path_500" data-name="Path 500" d="M312.845,52.74l-1.675,2.893.171.115,2.032-2.656Z" transform="translate(-306.743 -41.472)" fill="#fdbc11"/>
      <path id="Path_501" data-name="Path 501" d="M338.578,14.836l1.675-2.893-.171-.113-2.032,2.654Z" transform="translate(-327.88 -9.303)" fill="#fdbc11"/>
      <path id="Path_502" data-name="Path 502" d="M297.55,42.071l.041.2,3.314-.44-.124-.622Z" transform="translate(-296.033 -32.406)" fill="#fdbc11"/>
      <path id="Path_503" data-name="Path 503" d="M349.594,32.46l-3.314.44.124.624,3.23-.863Z" transform="translate(-334.352 -25.525)" fill="#fdbc11"/>
      <path id="Path_504" data-name="Path 504" d="M302.383,20.73l-.113.171,2.654,2.032.355-.528Z" transform="translate(-299.745 -16.301)" fill="#fdbc11"/>
      <path id="Path_505" data-name="Path 505" d="M346.083,49.811l.113-.169-2.654-2.032-.353.528Z" transform="translate(-331.922 -37.438)" fill="#fdbc11"/>
    </g>
    <circle id="Ellipse_21" data-name="Ellipse 21" cx="4.773" cy="4.773" r="4.773" transform="translate(3.628 3.628)" fill="#fdbc11"/>
  </g>
  <path id="Path_506" data-name="Path 506" d="M36.384,79.689c-.508,0-1.408-.006-2.534-.077a35.823,35.823,0,0,1-19.307-7c-9.4-7.1-17.218-20.581-13.671-34.82.8-3.2,4.256-14.073,15.261-19.391.62-.3,15.351-7.251,27.439,1.812,8,6,12.887,17.647,8.749,27.458C49.981,53.212,44.279,59.3,36.331,59.9c-7.888.647-18.891-4.741-18.237-17.367q2.746-2.349,5.5-4.7c-.122.449-1.652,6.459,2.525,11.142,5.948,6.506,16.107,4.6,19.985-4.489,2.844-6.9-1.113-14.938-6.474-19.013C30.849,18.8,19.835,23.914,19,24.32,10.26,28.55,7.756,37.366,7.256,39.376,4.374,50.943,11.383,61.811,18.432,67.3A29.665,29.665,0,0,0,31.9,73.068c.34.056,1.271.2,2.5.3a33.471,33.471,0,0,0,16.705-3.006,31.57,31.57,0,0,0,9.777-7.275,31.137,31.137,0,0,0,6.45-11.306,31.638,31.638,0,0,0,1.476-10.4l7.309-3.634a60.245,60.245,0,0,1-1.06,8.309c-1.04,5.226-2.363,11.87-7.159,18.472a36.823,36.823,0,0,1-12.817,10.96,39.647,39.647,0,0,1-18.7,4.192Z" transform="translate(0 -12.243)" fill="#ffffff"/>
</svg>