<svg xmlns="http://www.w3.org/2000/svg" width="1972.948" height="221.624" viewBox="0 0 1972.948 221.624">
  <g id="Component_8_1" data-name="Component 8 – 1" transform="translate(0.055 0.313)">
    <path id="Path_577" data-name="Path 577" d="M2021.09,58.75c-30.481,20.507-118.837,33.577-199.544,39.6-78.944,5.886-166.42,2.236-241.76,10.8-168.943,19.209-173.389,83.188-298.635,118.7A329.282,329.282,0,0,1,1201,240.37c-31.562.971-62.363-2.669-90.64-6.488-194.457-26.3-387.232-67.4-603.117-58.388a1315.7,1315.7,0,0,0-201.426,23.735C224.233,215.221,152.5,236.751,78.16,257.269" transform="translate(-48.476 -36.439)" fill="rgba(105,0,0,0)" stroke="#fff" stroke-miterlimit="10" stroke-width="1"/>
    <path id="Path_578" data-name="Path 578" d="M75.02,250.646c74.313-19.674,146.1-40.307,227.3-55.54,34.455-6.477,70.631-11.983,109.408-16.024,28.413-2.964,58.266-5.137,89.88-6.329,116.011-4.388,225.14,5.717,330.586,20.233,87.959,12.121,173.357,27.332,260.556,39.2,28.613,3.914,59.866,7.447,91.88,6.435a345.967,345.967,0,0,0,81.556-12.543c42.7-11.8,72.152-26.8,98.123-42.354,7.483-4.473,14.687-9,22.33-13.376,20.769-11.92,41.618-22.553,67.59-32.374,25.211-9.61,55.185-18.429,93.281-24.853,8.844-1.5,18.128-2.859,27.932-4.072,30.894-3.84,63.508-5.7,96.923-6.994,47.061-1.835,95.762-2.563,142.023-6.308,80.956-6.582,170.275-19.621,204.171-39.337" transform="translate(-48.648 -36.568)" fill="rgba(105,0,0,0)" stroke="#fff" stroke-miterlimit="10" stroke-width="0.96"/>
    <path id="Path_579" data-name="Path 579" d="M71.9,244.034c74.249-18.83,146.1-38.567,226.9-53.04,34.226-6.161,70.09-11.372,108.394-15.148,28.108-2.774,57.576-4.779,88.683-5.834,114.272-3.861,221.667,6.361,324.543,21.013,85.884,12.268,168.609,27.67,254.653,39.463,28.948,4.009,60.694,7.437,93.161,6.371a362.54,362.54,0,0,0,82.925-12.564c43.821-11.825,74.489-26.9,101.037-42.617,7.637-4.525,15.034-9.125,23.27-13.45,22.271-11.773,44.781-21.119,72.17-30.381a633.378,633.378,0,0,1,95.72-24.61c8.8-1.561,17.992-3,27.668-4.3,30.467-4.125,62.334-6.393,95.2-8.08,46.26-2.405,94.64-3.671,140.981-7.732,81.206-7.142,171.488-20.159,208.832-39.062" transform="translate(-48.819 -36.697)" fill="rgba(105,0,0,0)" stroke="#fff" stroke-miterlimit="10" stroke-width="0.92"/>
    <path id="Path_580" data-name="Path 580" d="M68.77,237.412c74.184-17.975,146.09-36.837,226.506-50.54,34-5.834,69.55-10.749,107.421-14.283,27.8-2.584,56.846-4.42,87.486-5.338,112.534-3.333,218.2,6.994,318.506,21.8C892.5,201.472,972.676,217,1057.446,228.772c29.322,4.082,61.56,7.416,94.437,6.308a379.116,379.116,0,0,0,84.29-12.574c44.942-11.846,76.78-26.995,103.945-42.871,7.829-4.568,15.42-9.251,24.208-13.524,23.769-11.625,47.9-19.705,76.78-28.387s60.361-17.406,98.152-24.368c8.789-1.625,17.9-3.144,27.444-4.536,30.041-4.409,61.121-7.078,93.439-9.167,45.5-2.975,93.518-4.779,139.938-9.146,81.454-7.711,172.7-20.686,213.443-38.8" transform="translate(-48.991 -36.826)" fill="rgba(105,0,0,0)" stroke="#fff" stroke-miterlimit="10" stroke-width="0.88"/>
    <path id="Path_581" data-name="Path 581" d="M65.65,230.79c74.121-17.131,146.206-35.054,226.115-48.039,33.807-5.5,68.972-10.137,106.452-13.408,27.461-2.395,56.16-4.061,86.295-4.831C595.313,161.706,699.29,172.149,797,187.1c81.7,12.564,159.338,28.26,242.839,39.97,29.7,4.167,62.386,7.405,95.715,6.255a397.364,397.364,0,0,0,85.7-12.6c46.021-11.867,79.11-27.1,106.85-43.134,8.023-4.62,15.766-9.378,25.146-13.6,25.306-11.477,50.971-18.281,81.346-26.393s62.945-16.9,100.544-24.136c8.741-1.688,17.762-3.291,27.182-4.768,29.616-4.694,59.951-7.764,91.683-10.253,44.7-3.534,92.362-5.876,138.9-10.57,81.7-8.27,173.907-21.214,218.092-38.524" transform="translate(-49.162 -36.955)" fill="rgba(105,0,0,0)" stroke="#fff" stroke-miterlimit="10" stroke-width="0.84"/>
    <path id="Path_582" data-name="Path 582" d="M62.52,224.177c74.061-16.277,146.247-33.3,225.731-45.539,33.581-5.169,68.437-9.515,105.448-12.532,27.16-2.2,55.436-3.7,85.108-4.336,109.117-2.279,211.334,8.27,306.492,23.376,79.644,12.711,154.662,28.587,236.978,40.233,30.031,4.251,63.213,7.395,96.993,6.192a415.786,415.786,0,0,0,87.062-12.606c47.14-11.889,81.4-27.195,109.715-43.4,8.176-4.673,16.112-9.5,26.083-13.671,26.8-11.329,54.04-16.857,85.906-24.4,30.869-7.3,65.566-16.382,102.975-23.893,8.734-1.762,17.667-3.428,26.92-5,29.193-4.969,58.786-8.46,89.933-11.34,43.91-4.1,91.25-6.983,137.872-11.983,81.917-8.829,175.121-21.752,222.7-38.261" transform="translate(-49.334 -37.083)" fill="rgba(105,0,0,0)" stroke="#fff" stroke-miterlimit="10" stroke-width="0.8"/>
    <path id="Path_583" data-name="Path 583" d="M59.39,217.556c74-15.433,146.281-31.552,225.338-43.039,33.352-4.852,67.9-8.9,104.48-11.656,26.817-2.015,54.751-3.344,83.919-3.829,107.389-1.751,207.885,8.914,300.491,24.157,77.583,12.859,149.947,28.914,231.076,40.486,30.4,4.336,64.035,7.384,98.264,6.129a434.447,434.447,0,0,0,88.422-12.627c48.255-11.9,83.72-27.29,112.609-43.662,8.368-4.726,16.5-9.621,27.017-13.745,28.371-11.161,57.062-15.444,90.494-22.406s68.139-15.865,105.4-23.651c8.687-1.825,17.533-3.576,26.658-5.232,28.77-5.253,57.58-9.146,88.182-12.427,43.155-4.673,90.135-8.091,136.837-13.408,82.166-9.4,176.325-22.279,227.331-38" transform="translate(-49.506 -37.213)" fill="rgba(105,0,0,0)" stroke="#fff" stroke-miterlimit="10" stroke-width="0.76"/>
    <path id="Path_584" data-name="Path 584" d="M56.27,210.944c73.932-14.579,146.272-29.8,224.943-40.539,33.124-4.525,67.363-8.281,103.513-10.781,26.515-1.836,54.026-2.985,82.731-3.333,105.663-1.224,204.439,9.557,294.536,24.948,75.525,13.007,145.277,29.241,225.221,40.74,30.736,4.42,64.855,7.363,99.532,6.066a453.691,453.691,0,0,0,89.818-12.648c49.368-11.92,86-27.385,115.5-43.925,8.52-4.779,16.841-9.747,27.909-13.819,29.9-11.013,60.078-14.019,95.033-20.412s70.707-15.359,107.813-23.408c8.679-1.888,17.438-3.724,26.436-5.464,28.347-5.538,56.415-9.832,86.434-13.513,42.361-5.232,88.982-9.2,135.8-14.821,82.413-9.958,177.526-22.807,231.91-37.723" transform="translate(-49.677 -37.341)" fill="rgba(105,0,0,0)" stroke="#fff" stroke-miterlimit="10" stroke-width="0.72"/>
    <path id="Path_585" data-name="Path 585" d="M53.14,204.322c73.87-13.735,146.269-28.06,224.555-38.039,32.937-4.2,66.829-7.669,102.512-9.905,26.215-1.646,53.344-2.637,81.588-2.838,103.944-.707,201.005,10.19,288.56,25.729,73.473,13.144,140.62,29.568,219.383,41,31.068,4.515,65.676,7.353,100.8,6.013a474.462,474.462,0,0,0,91.175-12.659c50.48-11.941,88.31-27.48,118.383-44.189,8.712-4.831,17.224-9.874,28.84-13.893,31.386-10.855,63.09-12.606,99.568-18.418s73.274-14.842,110.229-23.165c8.632-1.952,17.3-3.861,26.175-5.7,27.965-5.823,55.254-10.528,84.69-14.6,41.569-5.8,87.873-10.306,134.772-16.245C1847.032,66.9,1943.1,54.074,2000.859,39.96" transform="translate(-49.849 -37.471)" fill="rgba(105,0,0,0)" stroke="#fff" stroke-miterlimit="10" stroke-width="0.68"/>
    <path id="Path_586" data-name="Path 586" d="M50.02,197.71c73.807-12.88,146.3-26.309,224.164-35.55,32.71-3.871,66.3-7.047,101.55-9.03q38.811-2.184,80.4-2.331c102.225-.179,197.733,10.781,282.59,26.509,71.5,13.26,135.929,29.906,213.512,41.257,31.439,4.6,66.494,7.342,102.066,5.95a494.542,494.542,0,0,0,92.527-12.68c51.59-11.962,90.58-27.585,121.263-44.453,8.9-4.884,17.568-10,29.769-13.967,32.909-10.707,66.1-11.192,104.133-16.425s75.834-14.336,112.638-22.923c8.625-2.025,17.21-4.009,25.914-5.928,27.544-6.108,54.054-11.213,82.948-15.686,40.779-6.372,86.764-11.414,133.744-17.659,82.909-11.087,179.928-23.872,241.1-37.2" transform="translate(-50.02 -37.6)" fill="rgba(105,0,0,0)" stroke="#fff" stroke-miterlimit="10" stroke-width="0.64"/>
  </g>
</svg>
