<svg id="Component_9_1" data-name="Component 9 – 1" xmlns="http://www.w3.org/2000/svg" width="1993.023" height="221.637" viewBox="0 0 1993.023 221.637">
  <path id="Path_589" data-name="Path 589" d="M40.64,177.854c73.62-10.338,146.288-21.077,223-28.049,31.993-2.9,64.7-5.2,98.636-6.414q37.4-1.329,76.871-.833c97.129,1.4,187.518,12.7,264.746,28.872,65.374,13.692,121.986,30.908,196.042,42.027a565.312,565.312,0,0,0,105.851,5.77,560.2,560.2,0,0,0,96.614-12.732c54.908-12.026,97.446-27.87,129.836-45.233,9.436-5.042,18.633-10.37,32.548-14.188,37.345-10.253,75.047-6.952,117.7-10.454,40.16-3.291,83.531-12.8,119.845-22.195,8.524-2.215,16.849-4.441,25.174-6.625,26.284-6.952,50.547-13.281,77.782-18.946,38.455-8.07,83.372-14.737,130.668-21.921,83.61-12.775,183.514-25.465,254.8-36.383" transform="translate(2.231 1.677)" fill="rgba(105,0,0,0)" stroke="#fff" stroke-miterlimit="10" stroke-width="0.52"/>
  <path id="Path_590" data-name="Path 590" d="M37.51,171.232c73.554-9.483,146.276-19.336,222.643-25.549,31.766-2.584,64.167-4.578,97.676-5.538q36.955-1.044,75.693-.338c95.418,1.93,184.143,13.334,258.845,29.653,63.335,13.84,117.322,31.246,190.242,42.29a567.084,567.084,0,0,0,107.1,5.707,585.079,585.079,0,0,0,97.993-12.743c56.007-12.047,99.736-27.965,132.69-45.5,9.585-5.1,18.973-10.5,33.47-14.273,38.817-10.106,77.99-5.549,122.194-8.46,41.471-2.732,86.07-12.279,122.233-21.952,8.516-2.289,16.715-4.578,24.914-6.857,25.865-7.237,49.392-13.977,76.049-20.032C1636.963,79,1681.524,71.8,1728.9,64.309c83.852-13.334,184.7-25.992,259.36-36.119" transform="translate(2.059 1.547)" fill="rgba(105,0,0,0)" stroke="#fff" stroke-miterlimit="10" stroke-width="0.48"/>
  <path id="Path_591" data-name="Path 591" d="M34.39,164.62c73.493-8.64,146.273-17.6,222.259-23.049,31.542-2.257,63.638-3.966,96.724-4.663q36.45-.759,74.561.169c93.716,2.458,180.744,13.977,252.931,30.444,61.3,13.988,112.673,31.594,184.424,42.544a567.952,567.952,0,0,0,108.359,5.644,609.165,609.165,0,0,0,99.336-12.764c57.108-12.057,101.988-28.07,135.548-45.761,9.775-5.148,19.313-10.623,34.352-14.346,40.328-9.958,80.973-4.146,126.722-6.466,42.782-2.173,88.611-11.773,124.625-21.71,8.469-2.352,16.622-4.726,24.656-7.089,25.447-7.521,48.243-14.663,74.324-21.119,36.924-9.209,81.171-16.941,128.622-24.748,84.1-13.9,185.889-26.53,263.893-35.856" transform="translate(1.887 1.419)" fill="rgba(105,0,0,0)" stroke="#fff" stroke-miterlimit="10" stroke-width="0.44"/>
  <path id="Path_592" data-name="Path 592" d="M31.26,158c73.432-7.785,146.27-15.855,221.876-20.549,31.318-1.941,63.071-3.344,95.734-3.787q36-.475,73.392.665c92.017,2.985,177.351,14.621,247.026,31.225,59.275,14.135,108.032,31.931,178.656,42.8a569.74,569.74,0,0,0,109.614,5.591,634.71,634.71,0,0,0,100.677-12.775c58.168-12.078,104.275-28.165,138.4-46.025,9.965-5.2,19.653-10.749,35.272-14.42,41.8-9.8,83.911-2.743,131.2-4.473,44.09-1.614,91.147-11.256,127.012-21.467,8.462-2.416,16.49-4.874,24.4-7.321,25.07-7.8,47.1-15.349,72.6-22.205,36.142-9.768,80.035-18.049,127.606-26.172,84.345-14.462,187.078-27.058,268.458-35.581" transform="translate(1.716 1.29)" fill="rgba(105,0,0,0)" stroke="#fff" stroke-miterlimit="10" stroke-width="0.4"/>
  <path id="Path_593" data-name="Path 593" d="M28.13,151.375c73.369-6.941,146.265-14.125,221.491-18.049,31.094-1.625,62.544-2.732,94.784-2.911q35.5-.19,72.224,1.171c90.319,3.5,173.961,15.254,241.128,32.016,57.249,14.283,103.4,32.279,172.894,43.06,33.781,5.243,72.224,7.258,110.864,5.528a660.91,660.91,0,0,0,102.053-12.8c59.264-12.1,106.518-28.26,141.247-46.288,10.115-5.253,19.992-10.876,36.191-14.494,43.263-9.652,86.882-1.35,135.676-2.479,45.4-1.055,93.677-10.749,129.394-21.224,8.416-2.479,16.4-5.011,24.14-7.553,24.654-8.08,45.91-16.045,70.88-23.292,35.4-10.338,78.941-19.157,126.589-27.585,84.59-15.022,188.264-27.585,272.972-35.318" transform="translate(1.544 1.162)" fill="rgba(105,0,0,0)" stroke="#fff" stroke-miterlimit="10" stroke-width="0.36"/>
  <path id="Path_594" data-name="Path 594" d="M25.01,144.764c73.308-6.087,146.26-12.384,221.107-15.549,30.831-1.3,62.017-2.11,93.835-2.036q35.055.079,71.057,1.667c88.624,4.03,170.577,15.9,235.239,32.8,55.228,14.431,98.77,32.617,167.1,43.314,34.107,5.338,73.031,7.237,112.113,5.464A686.732,686.732,0,0,0,1028.853,197.6c60.359-12.121,108.8-28.355,144.049-46.552,10.3-5.306,20.33-11.013,37.108-14.568,44.648-9.526,89.809.042,140.181-.485,46.7-.5,96.243-10.232,131.772-20.982,8.408-2.553,16.264-5.158,23.923-7.785,24.239-8.365,44.766-16.73,69.162-24.378,34.621-10.908,77.847-20.264,125.574-29.009,84.8-15.591,189.447-28.123,277.519-35.054" transform="translate(1.373 1.031)" fill="rgba(105,0,0,0)" stroke="#fff" stroke-miterlimit="10" stroke-width="0.32"/>
  <path id="Path_595" data-name="Path 595" d="M21.88,138.142c73.247-5.243,146.257-10.654,220.726-13.049,30.608-.981,61.493-1.5,92.85-1.171,23.075.243,46.425.949,69.894,2.173,86.934,4.557,167.241,16.541,229.365,33.577,53.17,14.579,94.152,32.965,161.364,43.577,34.434,5.433,73.838,7.226,113.361,5.412a716.316,716.316,0,0,0,104.723-12.827c61.453-12.142,111.034-28.45,146.888-46.816,10.453-5.359,20.668-11.14,38.024-14.642,46.11-9.378,92.771,1.635,144.64,1.5,48-.127,98.767-9.726,134.148-20.739,8.362-2.616,16.172-5.306,23.666-8.017,23.824-8.65,43.625-17.427,67.488-25.465,33.842-11.467,76.718-21.372,124.563-30.423,85.04-16.15,190.631-28.651,282.022-34.78" transform="translate(1.201 0.903)" fill="rgba(105,0,0,0)" stroke="#fff" stroke-miterlimit="10" stroke-width="0.28"/>
  <path id="Path_596" data-name="Path 596" d="M18.76,131.53c73.184-4.388,146.25-8.924,220.34-10.549,30.385-.665,60.967-.876,91.9-.3,22.74.433,45.715,1.308,68.731,2.669,85.283,5.085,163.827,17.184,223.493,34.368,51.154,14.726,89.539,33.313,155.629,43.83,34.76,5.528,74.682,7.215,114.6,5.348a745.853,745.853,0,0,0,106.091-12.849c62.543-12.163,113.3-28.556,149.718-47.069,10.641-5.412,21.006-11.266,38.937-14.716,47.607-9.23,95.726,2.838,149.087,3.492,49.3.612,101.283-9.209,136.516-20.5,8.355-2.679,16.04-5.443,23.409-8.249,23.41-8.935,42.444-18.112,65.775-26.551,33.1-12.036,75.627-22.48,123.549-31.847,85.283-16.709,191.808-29.178,286.549-34.516" transform="translate(1.03 0.774)" fill="rgba(105,0,0,0)" stroke="#fff" stroke-miterlimit="10" stroke-width="0.24"/>
  <path id="Path_597" data-name="Path 597" d="M15.63,124.908c73.121-3.544,146.243-7.194,219.955-8.049,30.162-.348,60.442-.264,90.959.58,22.444.622,45.046,1.667,67.609,3.165,83.6,5.612,160.458,17.828,217.671,35.149,49.141,14.884,84.895,33.661,149.865,44.084,35.084,5.623,75.484,7.2,115.845,5.285a775.993,775.993,0,0,0,107.418-12.859c63.632-12.184,115.529-28.651,152.543-47.333,10.828-5.464,21.381-11.393,39.849-14.79,49.063-9.083,98.677,4.23,153.567,5.485,50.6,1.16,103.8-8.692,138.879-20.254,8.308-2.743,15.947-5.591,23.153-8.471,23-9.22,41.305-18.8,64.065-27.638,32.328-12.606,74.539-23.587,122.538-33.261,85.525-17.279,192.982-29.716,291.029-34.252" transform="translate(0.858 0.645)" fill="rgba(105,0,0,0)" stroke="#fff" stroke-miterlimit="10" stroke-width="0.2"/>
  <path id="Path_598" data-name="Path 598" d="M12.5,118.285c73.061-2.7,146.24-5.464,219.577-5.549,29.94-.032,59.92.359,89.979,1.456,22.111.812,44.34,2.025,66.451,3.671,81.913,6.139,156.981,18.5,211.826,35.94,47.016,15.053,80.3,34.02,144.155,44.347,35.37,5.717,76.287,7.194,117.087,5.222a803.736,803.736,0,0,0,108.746-12.88c64.72-12.205,117.795-28.746,155.368-47.6,10.977-5.517,21.718-11.519,40.721-14.863,50.517-8.935,101.625,5.623,158,7.479,51.934,1.709,106.307-8.186,141.244-20.011,8.3-2.817,15.816-5.728,22.937-8.7,22.623-9.494,40.17-19.494,62.36-28.725,31.553-13.176,73.415-24.695,121.532-34.685,85.769-17.838,194.161-30.244,295.549-33.978" transform="translate(0.686 0.517)" fill="rgba(105,0,0,0)" stroke="#fff" stroke-miterlimit="10" stroke-width="0.16"/>
  <path id="Path_599" data-name="Path 599" d="M9.38,111.673c73-1.846,146.236-3.745,219.2-3.049,29.719.285,59.4.97,89.039,2.331,21.817,1,43.674,2.373,65.295,4.167,80.233,6.667,153.626,19.136,205.988,36.721,44.971,15.2,75.673,34.368,138.413,44.6,35.694,5.823,77.088,7.173,118.325,5.169a835.384,835.384,0,0,0,110.109-12.9c65.806-12.226,120.015-28.841,158.186-47.86,11.164-5.559,22.053-11.646,41.63-14.937,51.969-8.777,104.566,7.015,162.471,9.473,53.227,2.257,108.811-7.669,143.6-19.769,8.255-2.88,15.724-5.876,22.682-8.935,22.21-9.779,39-20.18,60.656-29.811,30.78-13.735,72.331-25.8,120.526-36.1C1751.51,22.366,1860.833,10,1965.516,7.06" transform="translate(0.515 0.388)" fill="rgba(105,0,0,0)" stroke="#fff" stroke-miterlimit="10" stroke-width="0.12"/>
  <path id="Path_600" data-name="Path 600" d="M6.25,105.051c72.94-1,146.233-2.057,218.819-.549,29.5.58,58.878,1.593,88.1,3.207,21.525,1.192,42.97,2.732,64.141,4.673,78.557,7.184,150.318,19.779,200.162,37.512,42.97,15.349,71.015,34.758,132.721,44.854,35.979,5.939,77.889,7.163,119.563,5.106a869.383,869.383,0,0,0,111.433-12.912c66.891-12.237,122.273-28.936,160.963-48.124,11.351-5.612,22.388-11.773,42.538-15.011,53.458-8.629,107.544,8.376,166.893,11.467,54.558,2.785,111.315-7.163,145.958-19.536,8.248-2.943,15.593-6.023,22.428-9.167,21.8-10.064,37.865-20.866,58.957-30.9,30.048-14.3,71.211-26.91,119.524-37.522,86.216-18.967,196.509-31.309,304.525-33.44" transform="translate(0.343 0.259)" fill="rgba(105,0,0,0)" stroke="#fff" stroke-miterlimit="10" stroke-width="0.08"/>
  <path id="Path_601" data-name="Path 601" d="M3.13,98.439c72.918-.148,146.229-.316,218.48,1.952,29.277.907,58.358,2.2,87.164,4.082,21.192,1.382,42.307,3.091,62.989,5.169,76.882,7.711,146.974,20.423,194.344,38.292,40.972,15.5,66.443,35.1,127.038,45.117,36.3,6.034,78.687,7.152,120.8,5.042a901.655,901.655,0,0,0,112.752-12.933c67.973-12.258,124.526-29.041,163.772-48.388,11.5-5.665,22.723-11.9,43.445-15.085,54.9-8.481,110.476,9.779,171.306,13.46,55.885,3.344,113.851-6.646,148.309-19.294a238.114,238.114,0,0,0,22.173-9.4c21.389-10.348,36.734-21.562,57.259-31.984,29.277-14.874,70.131-28.018,118.521-38.936C1737.937,16.01,1849.159,3.7,1960.459,2.36" transform="translate(0.172 0.13)" fill="rgba(105,0,0,0)" stroke="#fff" stroke-miterlimit="10" stroke-width="0.04"/>
  <path id="Path_602" data-name="Path 602" d="M0,91.817c102.267.981,205.71,2.015,304.291,9.41s193.4,21.878,250.412,44.748c38.978,15.644,61.878,35.434,121.324,45.371,71.25,11.92,166.144,4.483,236.1-7.964,69.014-12.279,126.736-29.136,166.576-48.651,11.685-5.717,23.1-12.015,44.35-15.159,56.349-8.334,113.4,11.182,175.751,15.454,57.172,3.914,116.344-6.139,150.655-19.051s51.251-28.492,77.523-42.712C1606.506,30.222,1779.276.844,1957.93,0" fill="rgba(105,0,0,0)"/>
</svg>
